<svg width="32" height="32" viewBox="0 0 32 32" fill="none" xmlns="http://www.w3.org/2000/svg">
<g clip-path="url(#clip0_63_1797)">
<path d="M10.5 30C11.6046 30 12.5 29.1046 12.5 28C12.5 26.8954 11.6046 26 10.5 26C9.39543 26 8.5 26.8954 8.5 28C8.5 29.1046 9.39543 30 10.5 30Z" fill="black"/>
<path d="M24.5 30C25.6046 30 26.5 29.1046 26.5 28C26.5 26.8954 25.6046 26 24.5 26C23.3954 26 22.5 26.8954 22.5 28C22.5 29.1046 23.3954 30 24.5 30Z" fill="black"/>
<path d="M5.48 2.804C5.43471 2.57739 5.31232 2.37346 5.13366 2.22689C4.955 2.08031 4.73109 2.00014 4.5 2H0.5V4H3.68L7.52 23.196C7.56529 23.4226 7.68768 23.6265 7.86634 23.7731C8.045 23.9197 8.26891 23.9999 8.5 24H26.5V22H9.32L8.52 18H26.5C26.7275 18 26.9482 17.9224 27.1256 17.78C27.303 17.6377 27.4266 17.4391 27.476 17.217L29.744 7H27.697L25.698 16H8.12L5.48 2.804Z" fill="black"/>
<path d="M22.086 6.586L18.5 10.172V2H16.5V10.172L12.914 6.586L11.5 8L17.5 14L23.5 8L22.086 6.586Z" fill="black"/>
</g>
<defs>
<clipPath id="clip0_63_1797">
<rect width="32" height="32" fill="white" transform="translate(0.5)"/>
</clipPath>
</defs>
</svg>
